<svg xmlns="http://www.w3.org/2000/svg" width="159.531" height="161.995" viewBox="0 0 159.531 161.995">
  <g id="Group_10" data-name="Group 10" transform="translate(-599.618 -419.621)">
    <g id="Group_3" data-name="Group 3">
      <g id="Group_2" data-name="Group 2">
        <g id="Group_1" data-name="Group 1">
          <path id="Path_1" data-name="Path 1" d="M649.491,465.149c3.389,15.69,9.915,27.335,17.515,36.048l-3.083,2.208a74.44,74.44,0,0,0-27.848-29.222c-14.26-8.538-27.911-10.749-32.205-12.449a27.9,27.9,0,0,1,43.666-34.006C646.357,442.254,647.218,454.614,649.491,465.149Z" fill="#fff"/>
        </g>
      </g>
    </g>
    <g id="Group_6" data-name="Group 6">
      <g id="Group_5" data-name="Group 5">
        <g id="Group_4" data-name="Group 4">
          <path id="Path_2" data-name="Path 2" d="M704.022,512.356c-14.35-7.193-27.514-9.406-39.067-8.944l.212-3.787a74.431,74.431,0,0,0,40.224-3.385c15.59-5.761,25.869-15.012,29.885-17.293a27.9,27.9,0,0,1-.868,55.339C723.827,524.263,713.656,517.187,704.022,512.356Z" fill="#fff"/>
        </g>
      </g>
    </g>
    <g id="Group_9" data-name="Group 9">
      <g id="Group_8" data-name="Group 8">
        <g id="Group_7" data-name="Group 7">
          <path id="Path_3" data-name="Path 3" d="M636.744,527.386c13.6-8.527,22.327-18.627,27.933-28.739l3.125,2.147a74.427,74.427,0,0,0-18,36.132c-3.175,16.314-.607,29.9-.744,34.519a27.9,27.9,0,0,1-46.839-29.482C616.282,538.126,627.612,533.109,636.744,527.386Z" fill="#fff"/>
        </g>
      </g>
    </g>
    <circle id="Ellipse_1" data-name="Ellipse 1" cx="5.787" cy="5.787" r="5.787" transform="translate(658.887 495.146)" fill="#fff"/>
  </g>
</svg>
